# xmcd
# 
# Track frame offsets:
#     150
#     20475
#     42455
#     60394
# 
# Disc length: 1185
# 
# Revision: 0
# Processed by: cddbd v1.5.2PL0 Copyright (c) Steve Scherf et al.
# Submitted via: fre:ac v1.0.17
# 
DISCID=2c049f04
DTITLE=Flying Klassenfeind - The Flying Klassenfeind
DYEAR=1982
DGENRE=Hamburger Schule
TTITLE0=Sin City
TTITLE1=Venus In Furs
TTITLE2=Ulan Bator
TTITLE3=Out Demons Out
EXTD=
EXTT0=
EXTT1=
EXTT2=
EXTT3=
PLAYORDER=
